Coordinates
version=1
nRows=14
nColumns=33
inDegrees=yes

Units are S.I. units (second, meters, Newtons, ...)
Angles are in degrees.

endheader
time	ground_thorax_rot_x	ground_thorax_rot_y	ground_thorax_rot_z	ground_thorax_tx	ground_thorax_ty	ground_thorax_tz	clav_prot_r	clav_elev_r	scapula_abduction_r	scapula_elevation_r	scapula_upward_rot_r	scapula_winging_r	shoulder_elv_r	plane_of_elev_r	axial_rot_r	elbow_flexion_r	pro_sup_r	wrist_flex_r	wrist_dev_r	clav_prot_l	clav_elev_l	scapula_abduction_l	scapula_elevation_l	scapula_upward_rot_l	scapula_winging_l	shoulder_elv_l	plane_of_elev_l	axial_rot_l	elbow_flexion_l	pro_sup_l	wrist_flex_l	wrist_dev_l	
5.1900	-37.168735	-7.035509	14.048953	-77.389954	768.639571	7.735674	-7.519499	-45.000000	45.000000	-45.000000	22.814094	-3348.965654	-2099.904254	20.303672	-180.000000	2525.388386	255.963193	14.400651	9.160614	18.805657	37.021298	-45.000000	-37.189929	-30.286778	1877.677544	-3533.886827	25.175429	-33.332244	726.776426	-337.229048	9.202819	-18.073009	
5.2000	-37.255516	-7.002347	14.005941	-78.094925	768.679016	7.736996	-7.564802	-45.000000	45.000000	-45.000000	22.941234	-3349.069344	-2099.901104	20.322470	-180.000000	2525.362290	256.463433	14.495072	9.206603	18.781126	37.170428	-45.000000	-37.278004	-30.232432	1877.753537	-3533.911993	25.175840	-33.299918	726.856644	-336.473225	9.056321	-18.131342	
5.2100	-37.342839	-6.972680	13.952765	-78.820210	768.730703	7.738146	-7.602970	-45.000000	45.000000	-45.000000	23.051120	-3349.193636	-2099.916869	20.366414	-180.000000	2525.337986	256.921478	14.646819	9.294783	18.730225	37.358549	-45.000000	-37.385912	-30.170814	1877.830753	-3533.956804	25.186612	-33.244128	726.931183	-335.761075	8.865524	-18.155233	
5.2200	-37.427749	-6.955901	13.924476	-79.584424	768.806575	7.738734	-7.637242	-45.000000	45.000000	-45.000000	23.169676	-3349.313332	-2099.900885	20.392610	-180.000000	2525.322334	257.295000	14.753208	9.349533	18.721014	37.495978	-45.000000	-37.504565	-30.177258	1877.893895	-3533.961525	25.214069	-33.136118	727.016344	-335.150178	8.736010	-18.208080	
5.2300	-37.513018	-6.947576	13.908623	-80.392418	768.910574	7.737703	-7.672108	-45.000000	45.000000	-45.000000	23.288205	-3349.425862	-2099.869972	20.406126	-180.000000	2525.311403	257.579912	14.825300	9.383509	18.736764	37.615138	-45.000000	-37.638669	-30.232959	1877.944271	-3533.941015	25.250890	-32.982225	727.112592	-334.634828	8.643289	-18.274355	
5.2400	-37.600478	-6.943617	13.904222	-81.250610	769.048232	7.733087	-7.698207	-45.000000	45.000000	-45.000000	23.404659	-3349.549876	-2099.827411	20.427642	-180.000000	2525.313970	257.766538	14.913260	9.426454	18.765089	37.720448	-45.000000	-37.786701	-30.325525	1877.989280	-3533.911106	25.303260	-32.780411	727.207283	-334.218720	8.563075	-18.337466	
5.2500	-37.684772	-6.941869	13.906110	-82.160189	769.222876	7.721963	-7.723070	-45.000000	45.000000	-45.000000	23.511133	-3349.651305	-2099.772229	20.438863	-180.000000	2525.318007	257.859274	14.965911	9.449407	18.801327	37.806300	-45.000000	-37.933215	-30.439489	1878.035369	-3533.863031	25.353189	-32.558978	727.315284	-333.885767	8.512109	-18.411655	
5.2600	-37.775252	-6.937489	13.913514	-83.119265	769.436683	7.700761	-7.733366	-45.000000	45.000000	-45.000000	23.609710	-3349.770304	-2099.714859	20.470234	-180.000000	2525.335513	257.864407	15.064933	9.500074	18.830717	37.900761	-45.000000	-38.097173	-30.560240	1878.082488	-3533.829771	25.411448	-32.325976	727.412868	-333.619999	8.445928	-18.469129	
5.2700	-37.862907	-6.934897	13.928999	-84.125235	769.691783	7.665918	-7.739211	-45.000000	45.000000	-45.000000	23.686639	-3349.864100	-2099.644882	20.490784	-180.000000	2525.349852	257.790895	15.131139	9.532105	18.863629	37.977436	-44.999999	-38.262820	-30.693549	1878.129489	-3533.792235	25.458171	-32.094670	727.524463	-333.406427	8.399472	-18.536609	
5.2800	-37.949590	-6.926935	13.947592	-85.175901	769.990213	7.614676	-7.728536	-45.000000	45.000000	-45.000000	23.743035	-3349.959306	-2099.565026	20.529704	-180.000000	2525.372581	257.643944	15.230780	9.584608	18.886315	38.042309	-44.999998	-38.431378	-30.820815	1878.184655	-3533.768552	25.510001	-31.863786	727.627391	-333.237735	8.341470	-18.593366	
5.2900	-38.029553	-6.916055	13.966854	-86.270701	770.333970	7.545691	-7.715639	-45.000000	45.000000	-45.000000	23.776561	-3350.019397	-2099.471267	20.557536	-180.000000	2525.388620	257.430410	15.287894	9.616381	18.904496	38.096687	-44.999997	-38.594556	-30.944754	1878.245772	-3533.733509	25.551234	-31.648446	727.745424	-333.106158	8.299356	-18.660539	
5.3000	-38.120485	-6.905013	13.993800	-87.410622	770.724474	7.459209	-7.693485	-45.000000	45.000000	-45.000000	23.803607	-3350.094307	-2099.377750	20.590087	-180.000000	2525.409184	257.149698	15.364696	9.662379	18.926005	38.177137	-44.999995	-38.789416	-31.086972	1878.300703	-3533.703711	25.599650	-31.432189	727.861018	-333.011696	8.243346	-18.719111	
5.3100	-38.213128	-6.896142	14.023450	-88.599179	771.162640	7.356775	-7.673523	-45.000000	45.000000	-45.000000	23.818465	-3350.154442	-2099.283318	20.611236	-180.000000	2525.427059	256.806747	15.410881	9.696097	18.958245	38.270606	-44.999991	-38.997225	-31.251555	1878.351722	-3533.660136	25.645681	-31.203435	727.988826	-332.951707	8.194710	-18.783540	
5.3200	-38.318217	-6.905035	14.075146	-89.840927	771.648430	7.240665	-7.647415	-45.000000	45.000000	-45.000000	23.825938	-3350.241660	-2099.195848	20.633845	-180.000000	2525.453371	256.393103	15.463958	9.740367	19.017163	38.419767	-44.999984	-39.248005	-31.491733	1878.383565	-3533.602761	25.704442	-30.938440	728.118218	-332.927920	8.131099	-18.839724	
